<?xml version="1.0" encoding="UTF-8"?>
<svg width="1200" height="800" viewBox="0 0 1200 800" xmlns="http://www.w3.org/2000/svg">
  <defs>
    <linearGradient id="glow" x1="0" y1="0" x2="1" y2="1">
      <stop offset="0%" stop-color="#7ad4ff" stop-opacity="0.20"/>
      <stop offset="100%" stop-color="#2ab0ff" stop-opacity="0.10"/>
    </linearGradient>
  </defs>
  <g stroke="url(#glow)" stroke-width="1">
    <g opacity="0.35">
      <path d="M50 0 V800"/><path d="M150 0 V800"/><path d="M250 0 V800"/>
      <path d="M350 0 V800"/><path d="M450 0 V800"/><path d="M550 0 V800"/>
      <path d="M650 0 V800"/><path d="M750 0 V800"/><path d="M850 0 V800"/>
      <path d="M950 0 V800"/><path d="M1050 0 V800"/>
    </g>
    <g opacity="0.35">
      <path d="M0 50 H1200"/><path d="M0 150 H1200"/><path d="M0 250 H1200"/>
      <path d="M0 350 H1200"/><path d="M0 450 H1200"/><path d="M0 550 H1200"/>
      <path d="M0 650 H1200"/><path d="M0 750 H1200"/>
    </g>
    <g fill="#7ad4ff" opacity="0.25" stroke="none">
      <circle cx="220" cy="180" r="2"/><circle cx="520" cy="120" r="2"/>
      <circle cx="820" cy="260" r="2"/><circle cx="960" cy="520" r="2"/>
      <circle cx="420" cy="640" r="2"/><circle cx="140" cy="560" r="2"/>
    </g>
    <g opacity="0.28">
      <path d="M200 200 H340 V320 H480"/>
      <path d="M700 100 V220 H860"/>
      <path d="M320 620 H520 V520 H760"/>
    </g>
  </g>
</svg>
